<?xml version="1.0" encoding="UTF-8" standalone="no" ?>
<!DOCTYPE svg PUBLIC "-//W3C//DTD SVG 1.1//EN" "http://www.w3.org/Graphics/SVG/1.1/DTD/svg11.dtd">
<svg xmlns="http://www.w3.org/2000/svg" xmlns:xlink="http://www.w3.org/1999/xlink" version="1.1" width="1080" height="1080" viewBox="0 0 1080 1080" xml:space="preserve">
<desc>Created with Fabric.js 5.2.4</desc>
<defs>
</defs>
<g transform="matrix(1 0 0 1 540 540)" id="c62821b4-11f2-494e-b395-5d22ea689cfe"  >
<rect style="stroke: none; stroke-width: 1; stroke-dasharray: none; stroke-linecap: butt; stroke-dashoffset: 0; stroke-linejoin: miter; stroke-miterlimit: 4; fill: rgb(255,255,255); fill-rule: nonzero; opacity: 1; visibility: hidden;" vector-effect="non-scaling-stroke"  x="-540" y="-540" rx="0" ry="0" width="1080" height="1080" />
</g>
<g transform="matrix(1 0 0 1 540 540)" id="63c8f796-2604-44df-92d7-db3881dfbe0f"  >
</g>
<g transform="matrix(54 0 0 54 540 540)"  >
<g style=""   >
		<g transform="matrix(1 0 0 1 7.1 0)"  >
<path style="stroke: none; stroke-width: 1; stroke-dasharray: none; stroke-linecap: butt; stroke-dashoffset: 0; stroke-linejoin: miter; stroke-miterlimit: 4; fill: rgb(255,255,255); fill-rule: nonzero; opacity: 1;" vector-effect="non-scaling-stroke"  transform=" translate(-17.1, -10)" d="M 16.071 2.93 C 15.946775371057827 2.794840497041547 15.75847429459451 2.738623747443088 15.580483296831202 2.7835576365583132 C 15.402492299067895 2.8284915256735386 15.263437851512244 2.9673492908422645 15.218252074062574 3.1452765096483426 C 15.173066296612905 3.3232037284544207 15.229016463384024 3.511584187024157 15.364 3.6360000000000006 C 17.05185124519577 5.323830574354008 18.000077938880775 7.613032494223456 18.000077938880775 10 C 18.000077938880775 12.386967505776543 17.05185124519577 14.676169425645991 15.364 16.364 C 15.23402170777346 16.48953723513077 15.181893701400849 16.675438946071093 15.227651421708561 16.850253661946635 C 15.273409142016272 17.02506837782218 15.409931622177824 17.16159085798373 15.584746338053368 17.20734857829144 C 15.75956105392891 17.253106298599153 15.945462764869234 17.200978292226544 16.071 17.071 C 19.976152502559152 13.16577259589754 19.976152502559152 6.834227404102458 16.070999999999998 2.9289999999999985" stroke-linecap="round" />
</g>
		<g transform="matrix(1 0 0 1 -5 0)"  >
<path style="stroke: none; stroke-width: 1; stroke-dasharray: none; stroke-linecap: butt; stroke-dashoffset: 0; stroke-linejoin: miter; stroke-miterlimit: 4; fill: rgb(255,255,255); fill-rule: evenodd; opacity: 1;" vector-effect="non-scaling-stroke"  transform=" translate(-5, -10)" d="M 9 3.5 C 8.999957023756329 3.297673178941035 8.877983381928704 3.115314422506624 8.691000661417645 3.038025312037767 C 8.504017940906586 2.96073620156891 8.288885715133691 3.003752602894442 8.146 3.1470000000000007 L 4.293 7 L 3 7 C 1.895430500338413 7 1 7.8954305003384135 1 9 L 1 11 C 1 12.104569499661586 1.895430500338413 13 3 13 L 4.293 13 L 8.146 16.854 C 8.289014193082052 16.99737684100983 8.50438944413554 17.040330140782498 8.69146328527611 16.962784309677392 C 8.878537126416678 16.885238478572283 9.000362323797725 16.702508880502396 9 16.5 z" stroke-linecap="round" />
</g>
		<g transform="matrix(1 0 0 1 1.98 -0.01)"  >
<path style="stroke: none; stroke-width: 1; stroke-dasharray: none; stroke-linecap: butt; stroke-dashoffset: 0; stroke-linejoin: miter; stroke-miterlimit: 4; fill: rgb(255,255,255); fill-rule: nonzero; opacity: 1;" vector-effect="non-scaling-stroke"  transform=" translate(-11.98, -9.99)" d="M 11.828 7.172 C 11.702462764869233 7.042021707773451 11.516561053928907 6.989893701400834 11.341746338053358 7.035651421708544 C 11.16693162217781 7.081409142016255 11.030409142016254 7.21793162217781 10.984651421708543 7.392746338053358 C 10.938893701400833 7.567561053928906 10.991021707773449 7.753462764869234 11.120999999999999 7.879 C 11.683719046282793 8.441623736000354 11.99985932809726 9.204762484634276 11.99985932809726 10.000499999999999 C 11.99985932809726 10.796237515365721 11.683719046282793 11.559376263999644 11.120999999999999 12.122 C 10.93151389524593 12.318189443482153 10.934223813051423 12.63004238851057 11.127090712270427 12.822909287729573 C 11.319957611489428 13.015776186948576 11.631810556517847 13.01848610475407 11.828 12.829 C 12.578190095401354 12.078848561835997 12.99964575238532 11.061401672832039 12.99964575238532 10.0005 C 12.99964575238532 8.939598327167962 12.578190095401355 7.922151438164004 11.828 7.172000000000001" stroke-linecap="round" />
</g>
		<g transform="matrix(1 0 0 1 4.55 0)"  >
<path style="stroke: none; stroke-width: 1; stroke-dasharray: none; stroke-linecap: butt; stroke-dashoffset: 0; stroke-linejoin: miter; stroke-miterlimit: 4; fill: rgb(255,255,255); fill-rule: nonzero; opacity: 1;" vector-effect="non-scaling-stroke"  transform=" translate(-14.55, -10)" d="M 13.243 5.05 C 13.438249925742907 4.854809030833568 13.754750074257094 4.854809030833568 13.950000000000001 5.05 C 15.262909139423568 6.362775175937739 16.000505076272933 8.143360812936368 16.000505076272933 9.999999999999996 C 16.000505076272933 11.856639187063625 15.262909139423567 13.637224824062258 13.950000000000001 14.95 C 13.753810556517848 15.139486104754068 13.441957611489432 15.136776186948575 13.249090712270428 14.943909287729571 C 13.056223813051425 14.75104238851057 13.053513895245931 14.439189443482151 13.243 14.242999999999999 C 15.585958173901997 11.899886437260731 15.585958173901997 8.101113562739268 13.243000000000002 5.758000000000001 C 13.148958299312365 5.664195736989832 13.096106216314581 5.5368272608582405 13.096106216314581 5.403999999999999 C 13.096106216314581 5.2711727391417575 13.148958299312365 5.143804263010166 13.243 5.049999999999999" stroke-linecap="round" />
</g>
</g>
</g>
</svg>