<?xml version="1.0" encoding="UTF-8" standalone="no" ?>
<!DOCTYPE svg PUBLIC "-//W3C//DTD SVG 1.1//EN" "http://www.w3.org/Graphics/SVG/1.1/DTD/svg11.dtd">
<svg xmlns="http://www.w3.org/2000/svg" xmlns:xlink="http://www.w3.org/1999/xlink" version="1.1" width="1080" height="1080" viewBox="0 0 1080 1080" xml:space="preserve">
<desc>Created with Fabric.js 5.2.4</desc>
<defs>
</defs>
<g transform="matrix(1 0 0 1 540 540)" id="9b31e2cd-0dd0-4600-8645-80b308bb10ba"  >
<rect style="stroke: none; stroke-width: 1; stroke-dasharray: none; stroke-linecap: butt; stroke-dashoffset: 0; stroke-linejoin: miter; stroke-miterlimit: 4; fill: rgb(255,255,255); fill-rule: nonzero; opacity: 1; visibility: hidden;" vector-effect="non-scaling-stroke"  x="-540" y="-540" rx="0" ry="0" width="1080" height="1080" />
</g>
<g transform="matrix(1 0 0 1 540 540)" id="b627ed3e-2314-408c-8d86-82fde725d51f"  >
</g>
<g transform="matrix(54 0 0 54 540 540)"  >
<path style="stroke: none; stroke-width: 1; stroke-dasharray: none; stroke-linecap: butt; stroke-dashoffset: 0; stroke-linejoin: miter; stroke-miterlimit: 4; fill: rgb(255,255,255); fill-rule: nonzero; opacity: 1;"  transform=" translate(-9.5, -10)" d="M 9 3.5 C 9.000362323797725 3.2974911194976033 8.878537126416678 3.1147615214277145 8.69146328527611 3.0372156903226077 C 8.50438944413554 2.9596698592175006 8.289014193082052 3.002623158990169 8.146 3.146 L 4.293 7 L 3 7 C 1.895430500338413 7 1 7.8954305003384135 1 9 L 1 11 C 1 12.104569499661586 1.895430500338413 13 3 13 L 4.293 13 L 8.146 16.854 C 8.289014193082052 16.99737684100983 8.50438944413554 17.040330140782498 8.69146328527611 16.962784309677392 C 8.878537126416678 16.885238478572283 9.000362323797725 16.702508880502396 9 16.5 z M 12.146 7.146 C 12.239804263010168 7.051958299312365 12.36717273914176 6.999106216314582 12.5 6.999106216314582 C 12.632827260858242 6.999106216314582 12.760195736989834 7.051958299312365 12.854000000000001 7.146 L 15 9.293 L 17.146 7.145999999999999 C 17.27247201882749 7.0195279811725095 17.456809002353438 6.970135035301543 17.629572992939693 7.016427007060308 C 17.802336983525947 7.062718978819074 17.937281021180926 7.197663016474054 17.983572992939692 7.370427007060309 C 18.029864964698454 7.543190997646564 17.980472018827488 7.727527981172511 17.854 7.853999999999999 L 15.707 10 L 17.854 12.146 C 17.980472018827488 12.272472018827491 18.029864964698454 12.456809002353436 17.983572992939692 12.629572992939693 C 17.937281021180926 12.802336983525947 17.802336983525947 12.937281021180926 17.629572992939693 12.983572992939692 C 17.456809002353435 13.029864964698456 17.27247201882749 12.98047201882749 17.146 12.854000000000001 L 15 10.707 L 12.854 12.854000000000001 C 12.658491198559899 13.049508801440101 12.3415088014401 13.049508801440101 12.145999999999999 12.854000000000001 C 11.950491198559899 12.6584911985599 11.950491198559899 12.341508801440101 12.145999999999999 12.146 L 14.293 10 L 12.145999999999999 7.854 C 12.051958299312364 7.760195736989833 11.99910621631458 7.6328272608582415 11.99910621631458 7.5 C 11.99910621631458 7.3671727391417585 12.051958299312364 7.239804263010167 12.145999999999999 7.146" stroke-linecap="round" />
</g>
</svg>